# xmcd
# 
# Track frame offsets:
#     150
#     12600
#     25152
#     37930
#     50792
#     63347
#     75582
#     88465
#     101357
#     113562
#     125912
#     138497
#     151195
#     164222
#     176602
#     188532
#     200760
#     213887
#     226487
#     238237
#     249995
#     262397
# 
# Disc length: 3665
# 
# Revision: 9
# Processed by: cddbd v1.5.2PL0 Copyright (c) Steve Scherf et al.
# Submitted via: fre:ac v1.0.17
# 
DISCID=3f0e4f16
DTITLE=Hank Williams - The Legendary - Lovesick Blues
DYEAR=1999
DGENRE=Country
TTITLE0=Lovesick Blues
TTITLE1=Move It On Over
TTITLE2=Honkey Tonkin'
TTITLE3=Pan American
TTITLE4=Rootie Tootie
TTITLE5=My Love for You (Has Turned to Hate)
TTITLE6=I'm a Long Gone Daddy
TTITLE7=I Can't Get You Off My Mind
TTITLE8=The Blues Come Around
TTITLE9=(Last Night) I Heard You Crying
TTITLE10=Six More Miles
TTITLE11=I Don't Care (If Tomorrow Never Comes)
TTITLE12=On the Banks of the Old Pontchartrain
TTITLE13=My Sweet Love Ain't Around
TTITLE14=I'll Be a Bachelor 'Til I Die
TTITLE15=Never Again
TTITLE16=Calling You
TTITLE17=Wealth Won't Save Your Soul
TTITLE18=I'm Satisfied with You
TTITLE19=A Mansion on the Hill
TTITLE20=Fly Trouble
TTITLE21=I Saw the Light
EXTD=Recorded in 1947 except tracks 16, 17, 18 in 1946 and track 1 in 1948
EXTT0=
EXTT1=
EXTT2=
EXTT3=
EXTT4=
EXTT5=
EXTT6=
EXTT7=
EXTT8=
EXTT9=
EXTT10=
EXTT11=
EXTT12=
EXTT13=
EXTT14=
EXTT15=
EXTT16=
EXTT17=
EXTT18=
EXTT19=
EXTT20=
EXTT21=
PLAYORDER=
